<svg id="Capa_1" data-name="Capa 1" xmlns="http://www.w3.org/2000/svg" viewBox="0 0 485.48 163.04"><defs><style>.cls-1{fill:#e10198;}.cls-2{fill:#f4f4f4;}.cls-3{fill:none;stroke:#e10198;stroke-miterlimit:10;stroke-width:10px;}</style></defs><title>Inbeltec</title><rect class="cls-1" x="19.18" y="19.18" width="100.6" height="82.21" rx="12"/><path class="cls-2" d="M145.87,60.35h13.81V86A31.42,31.42,0,0,1,171,84.21c19,0,28.88,11.67,28.88,32.26,0,20.22-10.17,32.39-30.76,32.39-9.42,0-17.07-1.25-23.23-3.89ZM169,97.26c-4,0-7.15.63-9.29,1.89v35.4a34,34,0,0,0,9.92,1.26c12.05,0,16.32-5.15,16.32-19.34C185.92,103.29,181.91,97.26,169,97.26Z"/><path class="cls-2" d="M262.51,121.62H223.84v.63c0,8.53,5.9,13.56,17.07,13.56a43.09,43.09,0,0,0,18.71-3.89L261.75,145c-5.77,2.64-12.8,3.89-21,3.89-21,0-31.14-10.17-31.14-32.14,0-19.71,8.29-32.51,27.75-32.51,17.2,0,26.36,9.54,26.36,27.62A31.45,31.45,0,0,1,262.51,121.62Zm-38.67-11.3h26.74v-.63c0-8.91-4.9-13.43-13.56-13.43s-13.18,4.52-13.18,13.43Z"/><path class="cls-2" d="M277.19,60.35H291v66c0,6.91,1.63,9.17,5.14,9.17a10,10,0,0,0,4.27-.88l2,12.68a20.17,20.17,0,0,1-7.78,1.25c-10.55,0-17.46-6.15-17.46-19.33Z"/><path class="cls-2" d="M310.59,69.14H324.4V85.46h22.35V98.52H324.4v27c0,6.78,3,10.17,9.17,10.17,5.27,0,9.79-.88,13.43-2.76L349.13,146a39,39,0,0,1-15.44,2.76c-15.44,0-23.1-7.79-23.1-23.35Z"/><path class="cls-2" d="M410.52,121.62H371.86v.63c0,8.53,5.9,13.56,17.07,13.56a43.12,43.12,0,0,0,18.71-3.89L409.77,145c-5.77,2.64-12.8,3.89-21,3.89-21,0-31.13-10.17-31.13-32.14,0-19.71,8.28-32.51,27.74-32.51,17.2,0,26.37,9.54,26.37,27.62A31.42,31.42,0,0,1,410.52,121.62Zm-38.66-11.3H398.6v-.63c0-8.91-4.9-13.43-13.56-13.43s-13.18,4.52-13.18,13.43Z"/><path class="cls-2" d="M453.71,84.21a40.67,40.67,0,0,1,16.32,3l-2.13,13.06a34,34,0,0,0-13.94-3c-11.92,0-16.57,6.28-16.57,18.71,0,13.43,5.4,19.84,17.58,19.84a39.48,39.48,0,0,0,14.18-2.76L471.29,146a59.39,59.39,0,0,1-17.08,2.88c-19.08,0-30.76-11.42-30.76-32.14C423.45,96.76,434.13,84.21,453.71,84.21Z"/><path class="cls-2" d="M45.73,32a5.83,5.83,0,1,1,0,8.25A5.74,5.74,0,0,1,45.73,32ZM45,84.91V47.41h9.75v37.5Z"/><path class="cls-2" d="M63.58,84.91v-36c4.12-1.57,9.82-2.4,17.25-2.4,10.72,0,16.12,5,16.12,14.78V84.91H87.28V61.59c0-3.9-2.25-5.85-6.68-5.85a34.29,34.29,0,0,0-7.27.67v28.5Z"/><rect class="cls-3" x="19.18" y="19.18" width="100.6" height="82.21" rx="12"/><path class="cls-1" d="M101.47,105c16.17,15.66,34.39,17.87,34.39,17.87a62,62,0,0,1-11.07-35.74"/></svg>